<svg width="20" height="20" viewBox="0 0 20 20" fill="none" xmlns="http://www.w3.org/2000/svg">
<path d="M9.99169 1.66666C5.39169 1.66666 1.66669 5.39999 1.66669 9.99999C1.66669 14.6 5.39169 18.3333 9.99169 18.3333C14.6 18.3333 18.3334 14.6 18.3334 9.99999C18.3334 5.39999 14.6 1.66666 9.99169 1.66666ZM15.7667 6.66666H13.3084C13.0417 5.62499 12.6584 4.62499 12.1584 3.69999C13.6917 4.22499 14.9667 5.29166 15.7667 6.66666ZM10 3.36666C10.6917 4.36666 11.2334 5.47499 11.5917 6.66666H8.40835C8.76669 5.47499 9.30835 4.36666 10 3.36666ZM3.55002 11.6667C3.41669 11.1333 3.33335 10.575 3.33335 9.99999C3.33335 9.42499 3.41669 8.86666 3.55002 8.33332H6.36669C6.30002 8.88332 6.25002 9.43332 6.25002 9.99999C6.25002 10.5667 6.30002 11.1167 6.36669 11.6667H3.55002ZM4.23335 13.3333H6.69169C6.95835 14.375 7.34169 15.375 7.84169 16.3C6.30835 15.775 5.03335 14.7167 4.23335 13.3333ZM6.69169 6.66666H4.23335C5.03335 5.28332 6.30835 4.22499 7.84169 3.69999C7.34169 4.62499 6.95835 5.62499 6.69169 6.66666ZM10 16.6333C9.30835 15.6333 8.76669 14.525 8.40835 13.3333H11.5917C11.2334 14.525 10.6917 15.6333 10 16.6333ZM11.95 11.6667H8.05002C7.97502 11.1167 7.91669 10.5667 7.91669 9.99999C7.91669 9.43332 7.97502 8.87499 8.05002 8.33332H11.95C12.025 8.87499 12.0834 9.43332 12.0834 9.99999C12.0834 10.5667 12.025 11.1167 11.95 11.6667ZM12.1584 16.3C12.6584 15.375 13.0417 14.375 13.3084 13.3333H15.7667C14.9667 14.7083 13.6917 15.775 12.1584 16.3ZM13.6334 11.6667C13.7 11.1167 13.75 10.5667 13.75 9.99999C13.75 9.43332 13.7 8.88332 13.6334 8.33332H16.45C16.5834 8.86666 16.6667 9.42499 16.6667 9.99999C16.6667 10.575 16.5834 11.1333 16.45 11.6667H13.6334Z" fill="#64748B"/>
</svg>
