<svg width="448" height="61" viewBox="0 0 448 61" fill="none" xmlns="http://www.w3.org/2000/svg">
<g filter="url(#filter0_d_3332_5053)">
<rect x="4" y="3.63446" width="440" height="52" rx="4" fill="#3B82F6"/>
<path d="M201.778 35.6345V23.9981H203.534V34.1231H208.807V35.6345H201.778ZM214.349 35.8106C213.531 35.8106 212.817 35.6231 212.207 35.2481C211.598 34.8731 211.124 34.3485 210.787 33.6742C210.45 33 210.281 32.2121 210.281 31.3106C210.281 30.4053 210.45 29.6136 210.787 28.9356C211.124 28.2576 211.598 27.7311 212.207 27.3561C212.817 26.9811 213.531 26.7936 214.349 26.7936C215.168 26.7936 215.882 26.9811 216.491 27.3561C217.101 27.7311 217.575 28.2576 217.912 28.9356C218.249 29.6136 218.418 30.4053 218.418 31.3106C218.418 32.2121 218.249 33 217.912 33.6742C217.575 34.3485 217.101 34.8731 216.491 35.2481C215.882 35.6231 215.168 35.8106 214.349 35.8106ZM214.355 34.3845C214.885 34.3845 215.325 34.2443 215.673 33.964C216.022 33.6837 216.279 33.3106 216.446 32.8447C216.616 32.3788 216.702 31.8655 216.702 31.3049C216.702 30.7481 216.616 30.2367 216.446 29.7708C216.279 29.3011 216.022 28.9242 215.673 28.6401C215.325 28.3561 214.885 28.214 214.355 28.214C213.821 28.214 213.378 28.3561 213.026 28.6401C212.677 28.9242 212.418 29.3011 212.247 29.7708C212.08 30.2367 211.997 30.7481 211.997 31.3049C211.997 31.8655 212.08 32.3788 212.247 32.8447C212.418 33.3106 212.677 33.6837 213.026 33.964C213.378 34.2443 213.821 34.3845 214.355 34.3845ZM223.973 39.089C223.28 39.089 222.683 38.9981 222.183 38.8163C221.687 38.6345 221.282 38.3939 220.967 38.0947C220.653 37.7954 220.418 37.4678 220.263 37.1117L221.723 36.5095C221.825 36.6761 221.962 36.8523 222.132 37.0379C222.306 37.2273 222.541 37.3882 222.837 37.5208C223.136 37.6534 223.52 37.7197 223.99 37.7197C224.634 37.7197 225.166 37.5625 225.587 37.2481C226.007 36.9375 226.217 36.4413 226.217 35.7595V34.0436H226.109C226.007 34.2292 225.859 34.4356 225.666 34.6629C225.477 34.8901 225.215 35.0871 224.882 35.2538C224.549 35.4204 224.115 35.5038 223.581 35.5038C222.892 35.5038 222.27 35.3428 221.717 35.0208C221.168 34.6951 220.732 34.2159 220.411 33.5833C220.092 32.947 219.933 32.1648 219.933 31.2367C219.933 30.3087 220.09 29.5132 220.405 28.8504C220.723 28.1875 221.159 27.6799 221.712 27.3276C222.265 26.9716 222.892 26.7936 223.592 26.7936C224.134 26.7936 224.571 26.8845 224.905 27.0663C225.238 27.2443 225.498 27.4526 225.683 27.6913C225.873 27.9299 226.018 28.1401 226.121 28.322H226.246V26.9072H227.911V35.8276C227.911 36.5776 227.736 37.1932 227.388 37.6742C227.039 38.1553 226.568 38.5114 225.973 38.7424C225.382 38.9735 224.715 39.089 223.973 39.089ZM223.956 34.0947C224.445 34.0947 224.857 33.9811 225.195 33.7538C225.536 33.5227 225.793 33.1932 225.967 32.7651C226.145 32.3333 226.234 31.8163 226.234 31.214C226.234 30.6269 226.147 30.1098 225.973 29.6629C225.799 29.2159 225.543 28.8674 225.206 28.6174C224.869 28.3636 224.452 28.2367 223.956 28.2367C223.445 28.2367 223.018 28.3693 222.678 28.6345C222.337 28.8958 222.079 29.2519 221.905 29.7026C221.734 30.1534 221.649 30.6572 221.649 31.214C221.649 31.786 221.736 32.2879 221.911 32.7197C222.085 33.1515 222.342 33.4886 222.683 33.7311C223.028 33.9735 223.452 34.0947 223.956 34.0947ZM236.315 23.9981V35.6345H234.56V23.9981H236.315ZM240.435 30.4526V35.6345H238.736V26.9072H240.366V28.3276H240.474C240.675 27.8655 240.99 27.4943 241.418 27.214C241.849 26.9337 242.393 26.7936 243.048 26.7936C243.643 26.7936 244.164 26.9186 244.611 27.1686C245.058 27.4148 245.404 27.7822 245.651 28.2708C245.897 28.7595 246.02 29.3636 246.02 30.0833V35.6345H244.321V30.2879C244.321 29.6553 244.156 29.161 243.827 28.8049C243.497 28.4451 243.045 28.2651 242.469 28.2651C242.075 28.2651 241.724 28.3504 241.418 28.5208C241.115 28.6913 240.874 28.9413 240.696 29.2708C240.522 29.5966 240.435 29.9905 240.435 30.4526Z" fill="white"/>
</g>
<defs>
<filter id="filter0_d_3332_5053" x="0" y="0.63446" width="448" height="60" filterUnits="userSpaceOnUse" color-interpolation-filters="sRGB">
<feFlood flood-opacity="0" result="BackgroundImageFix"/>
<feColorMatrix in="SourceAlpha" type="matrix" values="0 0 0 0 0 0 0 0 0 0 0 0 0 0 0 0 0 0 127 0" result="hardAlpha"/>
<feMorphology radius="1" operator="dilate" in="SourceAlpha" result="effect1_dropShadow_3332_5053"/>
<feOffset dy="1"/>
<feGaussianBlur stdDeviation="1.5"/>
<feColorMatrix type="matrix" values="0 0 0 0 0 0 0 0 0 0 0 0 0 0 0 0 0 0 0.15 0"/>
<feBlend mode="normal" in2="BackgroundImageFix" result="effect1_dropShadow_3332_5053"/>
<feBlend mode="normal" in="SourceGraphic" in2="effect1_dropShadow_3332_5053" result="shape"/>
</filter>
</defs>
</svg>
