<svg width="233" height="55" viewBox="0 0 233 55" fill="none" xmlns="http://www.w3.org/2000/svg">
<path d="M33.2004 47.1695C35.6276 44.1093 37.0179 40.3562 37.1703 36.4533C37.1839 36.1884 37.1907 35.9279 37.1907 35.663C37.1903 32.6943 36.4782 29.7689 35.114 27.1322C37.2408 23.0232 37.7587 18.2688 36.5665 13.7983C35.3743 9.32784 32.5577 5.46267 28.6673 2.95835C24.777 0.454042 20.0925 -0.509369 15.5296 0.256449C10.9667 1.02227 6.85337 3.46226 3.99376 7.09946C1.56611 10.1585 0.175651 13.911 0.0238986 17.8133C0.0103109 18.0806 0.00351794 18.3387 0.00351794 18.6059C0.0038842 21.5747 0.715999 24.5 2.08016 27.1367C-0.0465852 31.2457 -0.564482 36.0001 0.627709 40.4706C1.8199 44.9411 4.63647 48.8063 8.52685 51.3106C12.4172 53.8149 17.1017 54.7783 21.6646 54.0125C26.2275 53.2467 30.3408 50.8067 33.2004 47.1695ZM33.6964 39.9046C33.1997 41.6752 32.3914 43.3431 31.3095 44.8301C31.2574 44.9003 31.1691 45.086 31.083 45.1245C28.154 46.5423 24.8986 47.1492 21.6554 46.8819C14.5083 46.2999 8.59544 41.5532 6.14287 35.2191C9.40962 39.1936 14.012 41.8423 19.0897 42.67C24.1674 43.4977 29.3727 42.4478 33.7326 39.7166C33.7258 39.771 33.7145 39.8367 33.6964 39.9046ZM34.2761 35.6698V35.7173C32.276 37.4214 29.9269 38.6667 27.394 39.3656C24.8065 40.093 22.09 40.2379 19.4398 39.79C16.7897 39.342 14.2717 38.3123 12.0671 36.7749L12.1169 36.7908L12.2369 36.836C15.9735 38.2024 20.0502 38.3325 23.8663 37.2072C27.6824 36.0819 31.0362 33.7608 33.4337 30.5857C33.9908 32.2205 34.2754 33.9358 34.2761 35.663V35.6698ZM32.1293 26.9759C32.161 27.0258 32.1882 27.0801 32.2176 27.1299C31.0894 29.1052 29.5453 30.8116 27.6922 32.131C25.8391 33.4503 23.7213 34.351 21.4856 34.7707C23.0364 34.1915 24.3742 33.154 25.321 31.796C26.2678 30.438 26.7787 28.8239 26.7859 27.1685C26.793 25.513 26.296 23.8946 25.3609 22.5285C24.4259 21.1624 23.0971 20.1134 21.5513 19.5208C23.7413 19.9449 25.8165 20.8287 27.6399 22.1138C29.4633 23.3989 30.9934 25.056 32.1293 26.9759ZM18.5982 32.5718C17.5233 32.5718 16.4725 32.253 15.5787 31.6558C14.6849 31.0586 13.9883 30.2098 13.5769 29.2166C13.1655 28.2235 13.0579 27.1307 13.2676 26.0764C13.4773 25.0221 13.995 24.0537 14.7551 23.2936C15.5152 22.5335 16.4836 22.0158 17.5379 21.8061C18.5922 21.5964 19.685 21.704 20.6781 22.1154C21.6713 22.5267 22.5201 23.2234 23.1173 24.1172C23.7145 25.011 24.0333 26.0618 24.0333 27.1367C24.0333 27.8507 23.8926 28.5576 23.6194 29.2172C23.3461 29.8767 22.9455 30.476 22.4406 30.9807C21.9357 31.4854 21.3362 31.8857 20.6766 32.1587C20.0169 32.4317 19.3099 32.5721 18.596 32.5718H18.5982ZM15.7697 4.49063C14.3839 4.37945 12.9906 4.40447 11.6096 4.56536C14.0008 3.37695 16.6557 2.81856 19.3229 2.94307C21.9902 3.06758 24.5815 3.87088 26.8515 5.27688C29.1216 6.68288 30.9951 8.64505 32.2948 10.9776C33.5944 13.3101 34.2772 15.9358 34.2784 18.6059C34.2784 18.8777 34.2603 19.1494 34.2467 19.4189C31.7669 11.3705 24.5745 5.20624 15.7675 4.48836L15.7697 4.49063ZM3.50007 14.3734C3.99969 12.6046 4.80774 10.9379 5.88697 9.45012C5.93679 9.37992 6.02738 9.19196 6.11343 9.15346C9.04297 7.73733 12.298 7.13058 15.541 7.39612C22.6745 7.97813 28.5806 12.7089 31.0377 19.0249C27.7659 15.0616 23.1644 12.4234 18.0911 11.6022C13.0178 10.7809 7.81896 11.8327 3.46384 14.5613C3.46837 14.4957 3.47969 14.4323 3.49781 14.3711L3.50007 14.3734ZM2.9158 18.6173C2.9158 18.6014 2.9158 18.5856 2.9158 18.5697C4.9156 16.8652 7.26481 15.6198 9.79796 14.9214C12.3854 14.1942 15.1019 14.0494 17.752 14.4973C20.4022 14.9453 22.9201 15.9749 25.1248 17.5121L25.0705 17.494L24.955 17.451C23.1315 16.788 21.2163 16.4114 19.2776 16.3345C16.2892 16.2251 13.3184 16.8375 10.6169 18.1198C7.91543 19.4022 5.56278 21.3167 3.75824 23.7013C3.20041 22.0643 2.91579 20.3467 2.9158 18.6173ZM5.06718 27.3043C5.03548 27.2545 5.0083 27.2024 4.97886 27.1503C6.10125 25.1834 7.63655 23.4831 9.47906 22.1664C11.3216 20.8497 13.4275 19.9479 15.652 19.5231C14.1031 20.1137 12.7711 21.1625 11.8335 22.5295C10.896 23.8965 10.3974 25.5169 10.4043 27.1745C10.4112 28.8322 10.9232 30.4483 11.8721 31.8075C12.821 33.1667 14.1617 34.2043 15.7154 34.782C13.5101 34.3625 11.4197 33.4774 9.58351 32.186C7.74735 30.8946 6.20767 29.2265 5.06718 27.293V27.3043ZM2.9158 35.6834C2.9158 35.4116 2.93618 35.1399 2.94977 34.8704C5.42725 42.9097 12.6174 49.0831 21.4267 49.7987C22.0065 49.8455 22.5847 49.8696 23.1614 49.8711C23.9689 49.8709 24.7757 49.824 25.5778 49.7307C23.1868 50.9169 20.5328 51.4735 17.8667 51.348C15.2007 51.2224 12.6108 50.4187 10.3419 49.013C8.07309 47.6073 6.20036 45.6461 4.9009 43.3147C3.60143 40.9834 2.91819 38.3592 2.9158 35.6902V35.6834Z" fill="black"/>
<path d="M21.2564 28.2469C21.8674 26.7807 21.174 25.0968 19.7078 24.4859C18.2416 23.875 16.5577 24.5683 15.9468 26.0345C15.3359 27.5008 16.0292 29.1846 17.4955 29.7955C18.9617 30.4065 20.6455 29.7131 21.2564 28.2469Z" fill="black"/>
<path d="M45.9658 38.1345V16.4379H55.8222C58.1779 16.4379 60.2546 16.8924 62.0523 17.8016C63.85 18.6902 65.2551 19.9403 66.2676 21.5521C67.2801 23.1638 67.7864 25.0752 67.7864 27.2862C67.7864 29.4765 67.2801 31.3878 66.2676 33.0203C65.2551 34.632 63.85 35.8925 62.0523 36.8017C60.2546 37.6902 58.1779 38.1345 55.8222 38.1345H45.9658ZM50.987 34.0121H55.5743C57.0207 34.0121 58.2709 33.7435 59.3247 33.2062C60.3992 32.6483 61.2257 31.8631 61.8043 30.8506C62.4036 29.8381 62.7032 28.6499 62.7032 27.2862C62.7032 25.9017 62.4036 24.7136 61.8043 23.7217C61.2257 22.7092 60.3992 21.9343 59.3247 21.3971C58.2709 20.8392 57.0207 20.5602 55.5743 20.5602H50.987V34.0121ZM71.2322 38.1345V21.4591H75.8504V26.1703L75.1995 24.8065C75.6955 23.6287 76.491 22.7402 77.5862 22.141C78.6813 21.5211 80.0141 21.2111 81.5845 21.2111V25.6744C81.3779 25.6537 81.1919 25.6434 81.0266 25.6434C80.8613 25.6227 80.6857 25.6124 80.4997 25.6124C79.1773 25.6124 78.1028 25.9947 77.2762 26.7592C76.4703 27.5031 76.0674 28.6706 76.0674 30.2617V38.1345H71.2322ZM84.4899 38.1345V21.4591H89.3251V38.1345H84.4899ZM86.9075 19.1344C86.019 19.1344 85.2957 18.8761 84.7378 18.3596C84.1799 17.843 83.9009 17.2024 83.9009 16.4379C83.9009 15.6733 84.1799 15.0327 84.7378 14.5162C85.2957 13.9996 86.019 13.7413 86.9075 13.7413C87.796 13.7413 88.5192 13.9892 89.0771 14.4852C89.6351 14.9604 89.914 15.5803 89.914 16.3449C89.914 17.1507 89.6351 17.8223 89.0771 18.3596C88.5399 18.8761 87.8167 19.1344 86.9075 19.1344ZM98.3379 38.1345L91.333 21.4591H96.3232L102.15 35.8098H99.6707L105.715 21.4591H110.364L103.328 38.1345H98.3379ZM120.159 38.3824C118.258 38.3824 116.584 38.0105 115.138 37.2666C113.712 36.5227 112.606 35.5102 111.821 34.2291C111.036 32.9273 110.643 31.4498 110.643 29.7968C110.643 28.123 111.026 26.6456 111.79 25.3645C112.575 24.0627 113.639 23.0502 114.983 22.3269C116.326 21.583 117.844 21.2111 119.539 21.2111C121.171 21.2111 122.638 21.5624 123.94 22.2649C125.263 22.9468 126.306 23.9387 127.071 25.2405C127.835 26.5216 128.217 28.061 128.217 29.8588C128.217 30.0447 128.207 30.2617 128.186 30.5097C128.166 30.737 128.145 30.9539 128.124 31.1606H114.58V28.34H125.583L123.723 29.1769C123.723 28.309 123.548 27.5548 123.196 26.9142C122.845 26.2736 122.359 25.7777 121.739 25.4264C121.12 25.0545 120.396 24.8685 119.57 24.8685C118.743 24.8685 118.01 25.0545 117.369 25.4264C116.749 25.7777 116.264 26.284 115.912 26.9452C115.561 27.5858 115.385 28.3503 115.385 29.2389V29.9827C115.385 30.8919 115.582 31.6978 115.974 32.4004C116.388 33.0823 116.956 33.6092 117.679 33.9811C118.423 34.3324 119.291 34.508 120.283 34.508C121.171 34.508 121.946 34.3737 122.607 34.1051C123.289 33.8365 123.909 33.4335 124.467 32.8963L127.04 35.6858C126.275 36.5537 125.314 37.2253 124.157 37.7005C123 38.1551 121.667 38.3824 120.159 38.3824ZM131.437 38.1345V21.4591H136.055V26.1703L135.404 24.8065C135.9 23.6287 136.695 22.7402 137.791 22.141C138.886 21.5211 140.219 21.2111 141.789 21.2111V25.6744C141.582 25.6537 141.396 25.6434 141.231 25.6434C141.066 25.6227 140.89 25.6124 140.704 25.6124C139.382 25.6124 138.307 25.9947 137.481 26.7592C136.675 27.5031 136.272 28.6706 136.272 30.2617V38.1345H131.437ZM145.098 25.4264L147.144 17.9876L147.826 20.8082C146.938 20.8082 146.204 20.5499 145.625 20.0333C145.067 19.496 144.789 18.7728 144.789 17.8636C144.789 16.9751 145.078 16.2622 145.656 15.725C146.235 15.1671 146.948 14.8881 147.795 14.8881C148.663 14.8881 149.376 15.1671 149.934 15.725C150.492 16.2622 150.771 16.9751 150.771 17.8636C150.771 18.1323 150.75 18.4009 150.709 18.6695C150.688 18.9175 150.616 19.2171 150.492 19.5684C150.388 19.9196 150.213 20.3846 149.965 20.9631L148.167 25.4264H145.098ZM159.113 38.3824C157.687 38.3824 156.313 38.2171 154.99 37.8865C153.688 37.5352 152.655 37.1013 151.891 36.5847L153.503 33.1132C154.267 33.5885 155.166 33.9811 156.199 34.2911C157.253 34.5803 158.286 34.725 159.299 34.725C160.414 34.725 161.2 34.5907 161.654 34.3221C162.129 34.0534 162.367 33.6815 162.367 33.2062C162.367 32.8136 162.181 32.5243 161.809 32.3384C161.458 32.1317 160.983 31.9768 160.383 31.8734C159.784 31.7701 159.123 31.6668 158.4 31.5635C157.697 31.4602 156.984 31.3259 156.261 31.1606C155.538 30.9746 154.877 30.706 154.277 30.3547C153.678 30.0034 153.193 29.5281 152.821 28.9289C152.469 28.3297 152.294 27.5548 152.294 26.6043C152.294 25.5504 152.593 24.6206 153.193 23.8147C153.812 23.0088 154.701 22.3786 155.858 21.924C157.015 21.4487 158.4 21.2111 160.011 21.2111C161.148 21.2111 162.305 21.3351 163.483 21.583C164.661 21.831 165.642 22.1926 166.427 22.6679L164.816 26.1083C164.01 25.6331 163.194 25.3128 162.367 25.1475C161.561 24.9615 160.776 24.8685 160.011 24.8685C158.937 24.8685 158.152 25.0132 157.656 25.3025C157.16 25.5918 156.912 25.9637 156.912 26.4183C156.912 26.8316 157.088 27.1415 157.439 27.3481C157.811 27.5548 158.296 27.7201 158.896 27.8441C159.495 27.968 160.146 28.0817 160.848 28.185C161.572 28.2677 162.295 28.402 163.018 28.588C163.741 28.7739 164.392 29.0425 164.971 29.3938C165.57 29.7244 166.056 30.1894 166.427 30.7886C166.799 31.3672 166.985 32.1317 166.985 33.0823C166.985 34.1154 166.675 35.0349 166.056 35.8408C165.436 36.626 164.537 37.2459 163.359 37.7005C162.202 38.1551 160.786 38.3824 159.113 38.3824ZM182.094 26.1393H193.562V28.092H182.094V26.1393ZM182.342 36.1508H195.391V38.1345H180.048V16.4379H194.926V18.4215H182.342V36.1508ZM200.109 44.3025C199.344 44.3025 198.61 44.1785 197.908 43.9306C197.226 43.6826 196.637 43.3107 196.141 42.8147L197.164 41.172C197.577 41.5646 198.022 41.8642 198.497 42.0708C198.993 42.2981 199.54 42.4118 200.14 42.4118C200.863 42.4118 201.483 42.2052 201.999 41.7919C202.537 41.3993 203.043 40.6967 203.518 39.6842L204.572 37.2976L204.82 36.9566L211.515 21.862H213.684L205.533 40.0872C205.078 41.141 204.572 41.9779 204.014 42.5978C203.477 43.2177 202.888 43.6516 202.247 43.8996C201.607 44.1682 200.894 44.3025 200.109 44.3025ZM204.448 38.5994L196.947 21.862H199.241L205.874 36.8017L204.448 38.5994ZM223.242 38.2894C221.547 38.2894 220.059 37.9382 218.778 37.2356C217.497 36.5124 216.495 35.5309 215.772 34.2911C215.049 33.0306 214.687 31.5945 214.687 29.9827C214.687 28.371 215.028 26.9452 215.71 25.7054C216.412 24.4656 217.363 23.4944 218.561 22.7919C219.78 22.0686 221.144 21.707 222.653 21.707C224.182 21.707 225.535 22.0583 226.713 22.7609C227.912 23.4428 228.852 24.4139 229.534 25.6744C230.216 26.9142 230.556 28.3503 230.556 29.9827C230.556 30.0861 230.546 30.1997 230.525 30.3237C230.525 30.427 230.525 30.5406 230.525 30.6646H216.361V29.0219H229.348L228.48 29.6728C228.48 28.495 228.221 27.4515 227.705 26.5423C227.209 25.6124 226.527 24.8892 225.659 24.3726C224.791 23.856 223.789 23.5977 222.653 23.5977C221.537 23.5977 220.535 23.856 219.646 24.3726C218.758 24.8892 218.065 25.6124 217.569 26.5423C217.074 27.4721 216.826 28.5363 216.826 29.7348V30.0757C216.826 31.3155 217.094 32.4107 217.631 33.3612C218.189 34.2911 218.954 35.0246 219.925 35.5619C220.917 36.0784 222.043 36.3367 223.304 36.3367C224.295 36.3367 225.215 36.1611 226.062 35.8098C226.93 35.4585 227.674 34.9213 228.294 34.1981L229.534 35.6239C228.81 36.4917 227.901 37.1529 226.806 37.6075C225.732 38.0621 224.543 38.2894 223.242 38.2894Z" fill="black"/>
</svg>
